<?xml version="1.0" encoding="UTF-8"?>
<svg xmlns="http://www.w3.org/2000/svg" xmlns:xlink="http://www.w3.org/1999/xlink" viewBox="0 0 1024 200">
  <defs>
    <style>
      .cls-1 {
        fill: url(#radial-gradient-2);
      }

      .cls-1, .cls-2, .cls-3, .cls-4 {
        mix-blend-mode: multiply;
      }

      .cls-5 {
        fill: #004e98;
      }

      .cls-6 {
        fill: #ff9d00;
      }

      .cls-7 {
        fill: #9db7d2;
      }

      .cls-2 {
        fill: url(#linear-gradient-2);
      }

      .cls-3 {
        fill: url(#radial-gradient);
      }

      .cls-4 {
        fill: url(#linear-gradient);
      }

      .cls-8 {
        isolation: isolate;
      }
    </style>
    <radialGradient id="radial-gradient" cx="98.99" cy="52.22" fx="98.99" fy="52.22" r="119.28" gradientUnits="userSpaceOnUse">
      <stop offset=".23" stop-color="#fff"/>
      <stop offset=".8" stop-color="#ff9d00"/>
    </radialGradient>
    <radialGradient id="radial-gradient-2" cx="99.47" cy="50.14" fx="99.47" fy="50.14" r="125.53" gradientUnits="userSpaceOnUse">
      <stop offset=".56" stop-color="#fff"/>
      <stop offset="1" stop-color="#004e98"/>
    </radialGradient>
    <linearGradient id="linear-gradient" x1="70.91" y1="56.54" x2="-8.87" y2="161.89" gradientUnits="userSpaceOnUse">
      <stop offset="0" stop-color="#fff"/>
      <stop offset="1" stop-color="#3a6ea5"/>
    </linearGradient>
    <linearGradient id="linear-gradient-2" x1="-124.09" y1="56.54" x2="-203.88" y2="161.89" gradientTransform="translate(4.62) rotate(-180) scale(1 -1)" xlink:href="#linear-gradient"/>
  </defs>
  <g class="cls-8">
    <g id="Layer_1" data-name="Layer 1">
      <g>
        <rect class="cls-6" x="19.86" y="20" width="159.9" height="27.96"/>
        <rect class="cls-3" x="19.86" y="20" width="159.9" height="27.96"/>
        <polygon class="cls-5" points="108.34 60.69 159.79 179.9 39.82 179.9 91.28 60.69 108.34 60.69"/>
        <polygon class="cls-1" points="108.34 60.69 159.79 179.9 39.82 179.9 91.28 60.69 108.34 60.69"/>
        <g>
          <polygon class="cls-7" points="19.86 60.69 76.85 60.69 25.4 179.9 19.86 179.9 19.86 60.69"/>
          <polygon class="cls-4" points="19.86 60.69 76.85 60.69 25.4 179.9 19.86 179.9 19.86 60.69"/>
        </g>
        <g>
          <polygon class="cls-7" points="179.76 60.69 122.77 60.69 174.22 179.9 179.76 179.9 179.76 60.69"/>
          <polygon class="cls-2" points="179.76 60.69 122.77 60.69 174.22 179.9 179.76 179.9 179.76 60.69"/>
        </g>
      </g>
      <g>
        <path class="cls-5" d="m276.81,127.49l-15.32,16.36v36.23h-40.58V35.15h40.58v60.25l56.11-60.25h45.13l-59.21,64.18,62.32,80.74h-47.62l-41.41-52.59Z"/>
        <path class="cls-5" d="m435.81,141.56h-22.36v38.51h-40.99V35.15h66.25c39.54,0,64.39,20.5,64.39,53.62,0,21.32-10.35,37.06-28.36,45.75l31.26,45.55h-43.89l-26.29-38.51Zm.41-74.12h-22.77v42.44h22.77c16.98,0,25.46-7.87,25.46-21.12s-8.49-21.32-25.46-21.32Z"/>
        <path class="cls-5" d="m520.28,115.48V35.15h40.99v79.09c0,24.84,10.35,34.78,27.54,34.78s27.33-9.94,27.33-34.78V35.15h40.37v80.33c0,43.27-25.26,67.49-68.11,67.49s-68.11-24.22-68.11-67.49Z"/>
        <path class="cls-5" d="m680.11,35.15h40.99v144.92h-40.99V35.15Z"/>
        <path class="cls-5" d="m868.71,147.57v32.5h-129.81v-25.67l73.08-86.75h-71.22v-32.5h124.84v25.67l-73.08,86.75h76.19Z"/>
        <path class="cls-5" d="m998.94,148.4v31.68h-116.35V35.15h113.66v31.68h-73.08v24.43h64.39v30.64h-64.39v26.5h75.77Z"/>
      </g>
    </g>
  </g>
</svg>